P3
2 2
255
122 1 0
132 255 1
0 255 1
0 0 255
